 <svg
               xmlns="http://www.w3.org/2000/svg"
               width="123.531"
               height="35.243"
               viewBox="0 0 123.531 35.243"
            >
               <g
                  id="Grupo_19"
                  data-name="Grupo 19"
                  transform="translate(-329.772 -374.264)"
               >
                  <path
                     id="Caminho_1"
                     data-name="Caminho 1"
                     d="M338.318,410.5a16.048,16.048,0,0,1-6.275-6.017,17.579,17.579,0,0,1,.023-17.327,16.223,16.223,0,0,1,6.3-6.017,18.457,18.457,0,0,1,8.968-2.178,18.7,18.7,0,0,1,7.352,1.405,15,15,0,0,1,5.62,4.074l-3.933,3.7a11.475,11.475,0,0,0-8.757-3.84,12.278,12.278,0,0,0-6.041,1.475,10.63,10.63,0,0,0-4.168,4.1,12.551,12.551,0,0,0,0,11.895,10.625,10.625,0,0,0,4.168,4.1,12.278,12.278,0,0,0,6.041,1.475,11.409,11.409,0,0,0,8.757-3.887L360.3,407.2a14.965,14.965,0,0,1-5.643,4.074,18.877,18.877,0,0,1-7.375,1.4A18.46,18.46,0,0,1,338.318,410.5Z"
                     transform="translate(0 -3.168)"
                     fill="#fff"
                  ></path>
                  <path
                     id="Caminho_2"
                     data-name="Caminho 2"
                     d="M432.735,374.35h5.854V409.1h-5.854Z"
                     transform="translate(-69.481 -0.058)"
                     fill="#fff"
                  ></path>
                  <path
                     id="Caminho_3"
                     data-name="Caminho 3"
                     d="M467.151,404.3H473V429.31h-5.854Z"
                     transform="translate(-92.706 -20.272)"
                     fill="#fff"
                  ></path>
                  <path
                     id="Caminho_4"
                     data-name="Caminho 4"
                     d="M467.151,374.264H473v5.322h-5.854Z"
                     transform="translate(-92.706 0)"
                     fill="#78e55e"
                  ></path>
                  <path
                     id="Caminho_5"
                     data-name="Caminho 5"
                     d="M511.775,398.373l-4.355,4.121v6.6h-5.854V374.35h5.854v20.979l12.129-11.238h7.024L516.13,394.58,527.556,409.1h-7.118Z"
                     transform="translate(-115.93 -0.058)"
                     fill="#fff"
                  ></path>
                  <path
                     id="Caminho_6"
                     data-name="Caminho 6"
                     d="M601.924,418.1H582.3A6.8,6.8,0,0,0,585,422.475a8.826,8.826,0,0,0,5.408,1.615,9.115,9.115,0,0,0,6.79-2.716l3.137,3.606a10.571,10.571,0,0,1-4.261,3.044,16.888,16.888,0,0,1-13.065-.609,11.8,11.8,0,0,1-4.847-4.566,12.887,12.887,0,0,1-1.709-6.626,13.084,13.084,0,0,1,1.662-6.579,11.791,11.791,0,0,1,4.613-4.566,13.457,13.457,0,0,1,6.649-1.639,13.118,13.118,0,0,1,6.533,1.616,11.445,11.445,0,0,1,4.5,4.542,13.776,13.776,0,0,1,1.615,6.767Q602.018,416.973,601.924,418.1Zm-17.3-8.312a6.993,6.993,0,0,0-2.365,4.425h14.189a6.9,6.9,0,0,0-2.295-4.4,6.979,6.979,0,0,0-4.776-1.686A7.062,7.062,0,0,0,584.622,409.784Z"
                     transform="translate(-166.463 -19.688)"
                     fill="#fff"
                  ></path>
                  <path
                     id="Caminho_7"
                     data-name="Caminho 7"
                     d="M679.627,403.439v5.573a7.445,7.445,0,0,0-1.358-.14,7.07,7.07,0,0,0-5.338,1.99,7.938,7.938,0,0,0-1.92,5.736v12.129h-5.854V403.72h5.573v3.652Q673.258,403.439,679.627,403.439Z"
                     transform="translate(-226.324 -19.688)"
                     fill="#fff"
                  ></path>
               </g>
            </svg>